<svg version="1.1" viewBox="0.0 0.0 960.0 720.0" fill="none" stroke="none" stroke-linecap="square" stroke-miterlimit="10" xmlns:xlink="http://www.w3.org/1999/xlink" xmlns="http://www.w3.org/2000/svg"><clipPath id="p.0"><path d="m0 0l960.0 0l0 720.0l-960.0 0l0 -720.0z" clip-rule="nonzero"/></clipPath><g clip-path="url(#p.0)"><path fill="#000000" fill-opacity="0.0" d="m0 0l960.0 0l0 720.0l-960.0 0z" fill-rule="evenodd"/><path fill="#000000" fill-opacity="0.0" d="m40.598427 59.23622l878.8031 0l0 504.18896l-878.8031 0z" fill-rule="evenodd"/><path fill="#4a86e8" d="m68.94218 312.78308q0 -71.29686 38.28125 -111.624985q38.281242 -40.328125 98.82812 -40.328125q39.640625 0 71.46875 18.953125q31.84375 18.9375 48.546875 52.828125q16.703125 33.874985 16.703125 76.843735q0 43.5625 -17.578125 77.9375q-17.578125 34.375 -49.8125 52.0625q-32.21875 17.671875 -69.53125 17.671875q-40.421875 0 -72.265625 -19.53125q-31.828117 -19.546875 -48.234367 -53.328125q-16.40625 -33.796875 -16.40625 -71.484375zm39.0625 0.578125q0 51.765625 27.828117 81.546875q27.828125 29.78125 69.828125 29.78125q42.765625 0 70.40625 -30.078125q27.640625 -30.078125 27.640625 -85.34375q0 -34.96875 -11.828125 -61.031235q-11.8125 -26.078125 -34.5625 -40.4375q-22.75 -14.359375 -51.078125 -14.359375q-40.234375 0 -69.234375 27.640625q-28.999992 27.640625 -28.999992 92.281235zm279.10156 138.875l0 -207.42186l31.640625 0l0 29.48436q22.84375 -34.17186 66.015625 -34.17186q18.75 0 34.46878 6.734375q15.71875 6.734375 23.53125 17.67186q7.8125 10.9375 10.9375 25.984375q1.953125 9.765625 1.953125 34.171875l0 127.546875l-35.15625 0l0 -126.171875q0 -21.484375 -4.109375 -32.125q-4.09375 -10.65625 -14.5469055 -17.0q-10.4375 -6.34375 -24.5 -6.34375q-22.46875 0 -38.78125 14.265625q-16.296875 14.25 -16.296875 54.09375l0 113.28125l-35.15625 0zm227.7266 0l0 -286.32812l207.03125 0l0 33.78125l-169.14062 0l0 87.70311l158.40625 0l0 33.59375l-158.40625 0l0 97.453125l175.78125 0l0 33.796875l-213.67188 0z" fill-rule="nonzero"/><path fill="#4a86e8" d="m178.72441 311.33072l0 0c0 -21.995728 13.029572 -39.826782 29.102356 -39.826782l0 0c7.7184296 0 15.120728 4.1960144 20.578476 11.664978c5.4577637 7.468994 8.523895 17.59909 8.523895 28.161804l0 0c0 21.995697 -13.029572 39.82675 -29.102371 39.82675l0 0c-16.072784 0 -29.102356 -17.831055 -29.102356 -39.82675z" fill-rule="evenodd"/><path stroke="#000000" stroke-width="1.0" stroke-linejoin="round" stroke-linecap="butt" d="m178.72441 311.33072l0 0c0 -21.995728 13.029572 -39.826782 29.102356 -39.826782l0 0c7.7184296 0 15.120728 4.1960144 20.578476 11.664978c5.4577637 7.468994 8.523895 17.59909 8.523895 28.161804l0 0c0 21.995697 -13.029572 39.82675 -29.102371 39.82675l0 0c-16.072784 0 -29.102356 -17.831055 -29.102356 -39.82675z" fill-rule="evenodd"/></g></svg>